<svg xmlns="http://www.w3.org/2000/svg" xmlns:xlink="http://www.w3.org/1999/xlink" width="22" height="22" viewBox="0 0 22 22"><defs><style>.a{clip-path:url(#f);}.b{fill:#fff;}.c{fill:#a8a8a8;}.d{filter:url(#c);}.e{filter:url(#a);}</style><filter id="a" x="-14.376" y="-4.415" width="50.752" height="54.829" filterUnits="userSpaceOnUse"><feOffset dy="12" input="SourceAlpha"/><feGaussianBlur stdDeviation="6" result="b"/><feFlood flood-opacity="0.2"/><feComposite operator="in" in2="b"/><feComposite in="SourceGraphic"/></filter><filter id="c" x="4.458" y="-4.415" width="22.917" height="22.519" filterUnits="userSpaceOnUse"><feOffset dy="3" input="SourceAlpha"/><feGaussianBlur stdDeviation="3" result="d"/><feFlood flood-opacity="0.384"/><feComposite operator="in" in2="d"/><feComposite in="SourceGraphic"/></filter><clipPath id="f"><rect width="22" height="22"/></clipPath></defs><g id="e" class="a"><g transform="translate(-14.376 -4.415)"><g class="e" transform="matrix(1, 0, 0, 1, 14.38, 4.41)"><path class="b" d="M30.75,24.829H20a2,2,0,0,1-2-2V8a2,2,0,0,1,2-2h7.834l4.915,4.519V22.827a2,2,0,0,1-2,2Z" transform="translate(-14.38 -4.41)"/></g><g class="d" transform="matrix(1, 0, 0, 1, 14.38, 4.41)"><path class="c" d="M13.917,10.519H9V6Z" transform="translate(4.46 -4.41)"/></g></g></g></svg>