<svg width="79" height="79" xmlns="http://www.w3.org/2000/svg" xmlns:xlink="http://www.w3.org/1999/xlink" overflow="hidden"><defs><clipPath id="clip0"><rect x="2075" y="1198" width="79" height="79"/></clipPath><clipPath id="clip1"><rect x="2074" y="1241" width="80" height="37"/></clipPath><clipPath id="clip2"><rect x="2074" y="1241" width="80" height="37"/></clipPath><clipPath id="clip3"><rect x="2074" y="1241" width="80" height="37"/></clipPath><clipPath id="clip4"><rect x="2074" y="1198" width="80" height="37"/></clipPath><clipPath id="clip5"><rect x="2074" y="1198" width="80" height="37"/></clipPath><clipPath id="clip6"><rect x="2074" y="1198" width="80" height="37"/></clipPath></defs><g clip-path="url(#clip0)" transform="translate(-2075 -1198)"><g clip-path="url(#clip1)"><g clip-path="url(#clip2)"><g clip-path="url(#clip3)"><path d="M9.13045 0C9.97089 -3.37895e-16 10.6522 0.681307 10.6522 1.52174L10.6522 28.9131C10.6522 29.7535 9.97089 30.4348 9.13045 30.4348L1.52174 30.4348C0.681307 30.4348 -1.68947e-16 29.7535 -1.68947e-16 28.9131L-1.68947e-16 1.52174C-5.06842e-16 0.681307 0.681307 -1.68947e-16 1.52174 -1.68947e-16Z" stroke="#3C3C3C" stroke-width="4.56523" fill="#3C3C3C" transform="matrix(-2.25714 1.99442e-16 -1.99442e-16 -1 2148.85 1274.72)"/><path d="M9.13045 0C9.97089 -3.37895e-16 10.6522 0.681307 10.6522 1.52174L10.6522 28.9131C10.6522 29.7535 9.97089 30.4348 9.13045 30.4348L1.52174 30.4348C0.681307 30.4348 -1.68947e-16 29.7535 -1.68947e-16 28.9131L-1.68947e-16 1.52174C-5.06842e-16 0.681307 0.681307 -1.68947e-16 1.52174 -1.68947e-16Z" stroke="#3C3C3C" stroke-width="4.56523" fill="#3C3C3C" transform="matrix(-2.25714 1.99442e-16 -1.99442e-16 -1 2104.2 1274.72)"/></g></g></g><g clip-path="url(#clip4)"><g clip-path="url(#clip5)"><g clip-path="url(#clip6)"><path d="M9.39133 0C10.2558 -3.47549e-16 10.9566 0.700774 10.9566 1.56522L10.9566 29.7392C10.9566 30.6037 10.2558 31.3044 9.39133 31.3044L1.56522 31.3044C0.700774 31.3044 -1.73775e-16 30.6037 -1.73775e-16 29.7392L-1.73775e-16 1.56522C-5.21324e-16 0.700774 0.700774 -1.73775e-16 1.56522 -1.73775e-16Z" stroke="#3C3C3C" stroke-width="4.69566" fill="#3C3C3C" transform="matrix(-2.19444 1.95603e-16 -1.95603e-16 -1 2148.85 1231.65)"/><path d="M9.39133 0C10.2558 -3.47549e-16 10.9566 0.700774 10.9566 1.56522L10.9566 29.7392C10.9566 30.6037 10.2558 31.3044 9.39133 31.3044L1.56522 31.3044C0.700774 31.3044 -1.73775e-16 30.6037 -1.73775e-16 29.7392L-1.73775e-16 1.56522C-5.21324e-16 0.700774 0.700774 -1.73775e-16 1.56522 -1.73775e-16Z" stroke="#3C3C3C" stroke-width="4.69566" fill="#3C3C3C" transform="matrix(-2.19444 1.95603e-16 -1.95603e-16 -1 2104.2 1231.65)"/></g></g></g></g></svg>