<svg xmlns="http://www.w3.org/2000/svg" width="417.394" height="190.871" viewBox="0 0 417.394 190.871">
  <g id="Universität_Regensburg_logo_1_" data-name="Universität_Regensburg_logo (1)" transform="translate(0 0)">
    <path id="Differenzmenge_25" data-name="Differenzmenge 25" d="M1847.866,434.732a70.534,70.534,0,0,1-39.621-12.1,71.075,71.075,0,0,1-25.675-31.179,70.771,70.771,0,0,1,6.534-67.206,71.074,71.074,0,0,1,31.179-25.675,70.772,70.772,0,0,1,66.863,6.3,71.089,71.089,0,0,1,25.688,30.643,70.367,70.367,0,0,1,5.889,27.17h-16.677V400.9c0,5.141-.943,9.1-2.8,11.777-.779.82-1.589,1.633-2.408,2.415a10.723,10.723,0,0,1-6.16,1.7,11.163,11.163,0,0,1-4.743-.935,7.9,7.9,0,0,1-3.252-2.8c-1.654-2.5-2.492-6.594-2.492-12.158V362.687h-17.505V400.9a41.131,41.131,0,0,0,1.762,12.629,23.143,23.143,0,0,0,5.287,9.069,22.059,22.059,0,0,0,8.451,5.341,70.49,70.49,0,0,1-14.538,5.031A71.268,71.268,0,0,1,1847.866,434.732Z" transform="translate(-1777 -293)" fill="#3a4342"/>
    <path id="Pfad_106" data-name="Pfad 106" d="M158.888,81.152V97.979h6.15q5.678,0,8.516-2.05a7.146,7.146,0,0,0,2.839-6.183q0-4.423-3.17-6.513c-2.1-1.388-5.441-2.082-10-2.082h-4.336ZM141.745,69.609h26.1q13.035,0,19.335,4.227,6.315,4.234,6.308,12.869a16.1,16.1,0,0,1-3.327,10.487,16.5,16.5,0,0,1-9.6,5.5q5.157,1.893,8.311,10.755v.048l7.854,21.762H178.474L172.7,117.284q-1.4-4.331-3.785-6.009-2.413-1.656-7.491-1.656h-2.539v25.642H141.745V69.609Z" fill="#3a4342"/>
    <path id="Pfad_107" data-name="Pfad 107" d="M141.638,178.3a8.013,8.013,0,0,0,1.734,5.591,6.618,6.618,0,0,0,5.139,1.893,6.694,6.694,0,0,0,5.206-1.91q1.74-1.911,1.74-5.719V168.08h-3.223v10.047a6.281,6.281,0,0,1-.928,3.741,3.19,3.19,0,0,1-2.746,1.263,3.047,3.047,0,0,1-2.655-1.178,6.406,6.406,0,0,1-.849-3.7V168.08h-3.418V178.3Zm28.552-4.486a4.139,4.139,0,0,0-3.381-1.385,5.168,5.168,0,0,0-2.643.665,5.038,5.038,0,0,0-1.861,1.959v-2.294h-2.967v12.67h3.247v-6.3a4.731,4.731,0,0,1,.806-2.912,2.579,2.579,0,0,1,2.173-1.067,2.169,2.169,0,0,1,1.886.836,4.46,4.46,0,0,1,.6,2.594v6.848h3.284v-7.544a6.252,6.252,0,0,0-1.148-4.072Zm4.651,11.615h3.247v-12.67h-3.247v12.67Zm0-15.2h3.247V167.08h-3.247v3.149Zm9.912,15.2H188.5l4.6-12.67h-3.247l-3.1,9.741-3.027-9.741h-3.491l4.516,12.67Zm19.965-11.285a5.458,5.458,0,0,0-4.291-1.715,6.055,6.055,0,0,0-4.535,1.782,6.391,6.391,0,0,0-1.74,4.663,6.917,6.917,0,0,0,1.789,5.06,6.623,6.623,0,0,0,4.962,1.825,13.353,13.353,0,0,0,2.295-.188,9.926,9.926,0,0,0,2-.568v-2.5a7.755,7.755,0,0,1-1.8.7,7.969,7.969,0,0,1-1.922.231,4.4,4.4,0,0,1-2.912-.921,3.521,3.521,0,0,1-1.239-2.521h8.923v-1.025a6.984,6.984,0,0,0-1.531-4.816Zm-7.392,3.815a4.351,4.351,0,0,1,1-2.509,2.682,2.682,0,0,1,2.075-.9,2.511,2.511,0,0,1,2,.9,4.312,4.312,0,0,1,.9,2.509Zm18.627-5.475a4.2,4.2,0,0,0-.486-.031,3.546,3.546,0,0,0-2.205.708,5.15,5.15,0,0,0-1.544,2.124v-2.526H208.8v12.67h3.247v-5.92a4.927,4.927,0,0,1,.842-3.106,2.939,2.939,0,0,1,2.454-1.068,3.97,3.97,0,0,1,.586.043,3.288,3.288,0,0,1,.537.128l.121-2.93c-.242-.041-.455-.072-.635-.092Zm8.643.091a7.03,7.03,0,0,0-1.355-.146,6.051,6.051,0,0,0-3.7,1.05,3.249,3.249,0,0,0-1.41,2.723,2.923,2.923,0,0,0,.658,1.929,8.019,8.019,0,0,0,2.539,1.721.24.24,0,0,0,.063.036q2.514,1.259,2.514,2.2a1,1,0,0,1-.531.9,2.871,2.871,0,0,1-1.5.323,8.03,8.03,0,0,1-1.873-.226,8.6,8.6,0,0,1-1.85-.677l-.182,2.5a10.837,10.837,0,0,0,1.885.482,12.609,12.609,0,0,0,2.045.164,6.516,6.516,0,0,0,3.93-1.056,3.361,3.361,0,0,0,1.441-2.862,3.139,3.139,0,0,0-.77-2.155,8.3,8.3,0,0,0-2.807-1.775l-.33-.146q-1.989-.879-1.99-1.721a.959.959,0,0,1,.471-.861,2.528,2.528,0,0,1,1.35-.3,6.21,6.21,0,0,1,1.623.22,8.233,8.233,0,0,1,1.66.659l.244-2.4c-.921-.286-1.628-.477-2.126-.575Zm5.433,12.854h3.246v-12.67h-3.246v12.67Zm0-15.2h3.246V167.08h-3.246v3.149Zm8.215-.55v3.077H235.6v2.393h2.5v5.75a5.561,5.561,0,0,0,.977,3.7,4.092,4.092,0,0,0,3.221,1.111,8.952,8.952,0,0,0,1.137-.073,8.116,8.116,0,0,0,1.111-.22l-.049-2.283a5.155,5.155,0,0,1-.672.165,3.361,3.361,0,0,1-.574.055,1.644,1.644,0,0,1-1.439-.615,3.6,3.6,0,0,1-.439-2.033v-5.554h3.051v-2.393h-3.051V168.63l-3.127,1.049Zm16.223,9.693v.683a3.483,3.483,0,0,1-.867,2.448,2.863,2.863,0,0,1-2.209.946,2.15,2.15,0,0,1-1.5-.52,1.732,1.732,0,0,1-.574-1.349,1.784,1.784,0,0,1,1.008-1.654,6.374,6.374,0,0,1,3-.555h1.148Zm1.812-5.561a5.514,5.514,0,0,0-4.168-1.385,11.217,11.217,0,0,0-2.211.22,12.191,12.191,0,0,0-2.234.684l.051,2.32a9.406,9.406,0,0,1,1.873-.77,6.434,6.434,0,0,1,1.752-.257,3.4,3.4,0,0,1,2.307.714,2.525,2.525,0,0,1,.818,2.008v.184h-1.674a9.514,9.514,0,0,0-5,1.056,3.5,3.5,0,0,0-1.672,3.168,3.811,3.811,0,0,0,1.172,2.887,4.272,4.272,0,0,0,3.076,1.117,4.889,4.889,0,0,0,2.416-.6,5.519,5.519,0,0,0,1.881-1.776l.049,2.05h2.881V178.2a6.22,6.22,0,0,0-1.313-4.389Zm-3.2-3.485h2.516v-2.771h-2.516v2.771Zm-4.222,0h2.514v-2.771h-2.514v2.771Zm13.513-.647v3.077h-2.648v2.393h2.5v5.75a5.561,5.561,0,0,0,.977,3.7,4.092,4.092,0,0,0,3.221,1.111,8.952,8.952,0,0,0,1.137-.073,8.028,8.028,0,0,0,1.109-.22l-.047-2.283a5.235,5.235,0,0,1-.672.165,3.38,3.38,0,0,1-.574.055,1.644,1.644,0,0,1-1.439-.615,3.6,3.6,0,0,1-.439-2.033v-5.554h3.051v-2.393h-3.051V168.63l-3.127,1.049Zm21.117.818a5,5,0,0,1,2.826.629,2.239,2.239,0,0,1,.9,1.971,2.291,2.291,0,0,1-.9,1.941,4.181,4.181,0,0,1-2.564.684H281.98V170.5h1.5Zm-4.871,14.929h3.369v-7.274h1.074a3.5,3.5,0,0,1,1.953.445,3.127,3.127,0,0,1,1.074,1.58l1.953,5.249h3.6l-2.4-6.03a6.552,6.552,0,0,0-1.02-1.892,2.821,2.821,0,0,0-1.2-.732,4.676,4.676,0,0,0,2.686-1.459,4.085,4.085,0,0,0,.941-2.765,3.828,3.828,0,0,0-1.588-3.351,8.3,8.3,0,0,0-4.762-1.117H278.61v17.346Zm24.909-11.285a5.455,5.455,0,0,0-4.291-1.715,6.049,6.049,0,0,0-4.533,1.782,6.391,6.391,0,0,0-1.74,4.663,6.925,6.925,0,0,0,1.787,5.06,6.626,6.626,0,0,0,4.963,1.825,13.354,13.354,0,0,0,2.3-.188,9.871,9.871,0,0,0,2-.568v-2.5a7.755,7.755,0,0,1-1.8.7,7.981,7.981,0,0,1-1.922.231,4.4,4.4,0,0,1-2.912-.921,3.52,3.52,0,0,1-1.238-2.521h8.924v-1.025a6.99,6.99,0,0,0-1.534-4.816Zm-7.391,3.815a4.344,4.344,0,0,1,1-2.509,2.684,2.684,0,0,1,2.076-.9,2.514,2.514,0,0,1,2,.9,4.29,4.29,0,0,1,.9,2.509Zm19.4-1.96a4.78,4.78,0,0,1,.842,2.985,4.293,4.293,0,0,1-.873,2.788,2.723,2.723,0,0,1-2.215,1.081,2.616,2.616,0,0,1-2.2-1.093,4.763,4.763,0,0,1-.824-2.936,4.557,4.557,0,0,1,.824-2.845,2.6,2.6,0,0,1,2.166-1.073A2.734,2.734,0,0,1,315.525,176Zm-.755-2.954a5.03,5.03,0,0,0-2.516-.616,4.886,4.886,0,0,0-3.943,1.819,7.163,7.163,0,0,0-1.514,4.736,6.884,6.884,0,0,0,1.508,4.639,4.981,4.981,0,0,0,3.975,1.758,4.738,4.738,0,0,0,2.33-.574,5.818,5.818,0,0,0,1.893-1.782v1.38a4,4,0,0,1-1.105,3,4.2,4.2,0,0,1-3.07,1.079,7.638,7.638,0,0,1-1.939-.262,10.706,10.706,0,0,1-2.016-.763l-.193,2.624a13.193,13.193,0,0,0,2.189.592,12.708,12.708,0,0,0,2.252.2,7.258,7.258,0,0,0,5.3-1.734,7.1,7.1,0,0,0,1.752-5.261v-11.12h-3.027v2.172a5.425,5.425,0,0,0-1.881-1.886Zm18.218,1.1a5.458,5.458,0,0,0-4.291-1.715,6.053,6.053,0,0,0-4.535,1.782,6.391,6.391,0,0,0-1.74,4.663,6.926,6.926,0,0,0,1.789,5.06,6.621,6.621,0,0,0,4.961,1.825,13.377,13.377,0,0,0,2.3-.188,9.946,9.946,0,0,0,2-.568v-2.5a7.769,7.769,0,0,1-1.8.7,7.957,7.957,0,0,1-1.922.231,4.4,4.4,0,0,1-2.912-.921,3.527,3.527,0,0,1-1.238-2.521h8.924v-1.025a6.979,6.979,0,0,0-1.532-4.816Zm-7.392,3.815a4.358,4.358,0,0,1,1-2.509,2.68,2.68,0,0,1,2.074-.9,2.511,2.511,0,0,1,2,.9,4.3,4.3,0,0,1,.9,2.509Zm22.326-4.145a4.137,4.137,0,0,0-3.381-1.385,5.162,5.162,0,0,0-2.643.665,5.045,5.045,0,0,0-1.861,1.959v-2.294H337.07v12.67h3.248v-6.3a4.732,4.732,0,0,1,.8-2.912,2.58,2.58,0,0,1,2.172-1.067,2.17,2.17,0,0,1,1.887.836,4.459,4.459,0,0,1,.605,2.594v6.848h3.283v-7.544a6.246,6.246,0,0,0-1.148-4.072Zm10.621-1.239a7.046,7.046,0,0,0-1.355-.146,6.057,6.057,0,0,0-3.7,1.05,3.249,3.249,0,0,0-1.41,2.723,2.924,2.924,0,0,0,.66,1.929,8,8,0,0,0,2.539,1.721.217.217,0,0,0,.061.036q2.517,1.259,2.516,2.2a1,1,0,0,1-.531.9,2.878,2.878,0,0,1-1.5.323,8,8,0,0,1-1.873-.226,8.551,8.551,0,0,1-1.85-.677l-.184,2.5a10.837,10.837,0,0,0,1.885.482,12.616,12.616,0,0,0,2.047.164,6.525,6.525,0,0,0,3.93-1.056,3.361,3.361,0,0,0,1.441-2.862,3.148,3.148,0,0,0-.77-2.155,8.335,8.335,0,0,0-2.809-1.775l-.328-.146q-1.992-.879-1.99-1.721a.961.961,0,0,1,.469-.861,2.53,2.53,0,0,1,1.35-.3,6.21,6.21,0,0,1,1.623.22,8.084,8.084,0,0,1,1.66.659l.244-2.4q-1.382-.429-2.124-.575Zm14.094,3.455a5.228,5.228,0,0,1,.811,3.075,4.724,4.724,0,0,1-.836,2.931,2.652,2.652,0,0,1-2.215,1.1,2.744,2.744,0,0,1-2.3-1.11,5.693,5.693,0,0,1,.018-6.03,2.858,2.858,0,0,1,2.373-1.11,2.509,2.509,0,0,1,2.144,1.146Zm-8.662,9.4h2.941v-2.551a5.185,5.185,0,0,0,1.867,2.039,4.958,4.958,0,0,0,2.637.708,4.791,4.791,0,0,0,3.906-1.874,7.515,7.515,0,0,0,1.516-4.877,7.035,7.035,0,0,0-1.484-4.688,4.893,4.893,0,0,0-3.938-1.758,4.98,4.98,0,0,0-2.4.568,4.908,4.908,0,0,0-1.775,1.654v-7.924h-3.271v18.7Zm15.636-5.249a6.185,6.185,0,0,0,1.16,4.06,4.173,4.173,0,0,0,3.393,1.386,5.156,5.156,0,0,0,2.645-.666A4.939,4.939,0,0,0,388.657,183v2.429h2.98v-12.67h-3.273v5.651a6.068,6.068,0,0,1-.762,3.339,2.492,2.492,0,0,1-2.215,1.153,2.193,2.193,0,0,1-1.893-.83,4.387,4.387,0,0,1-.611-2.587v-6.727h-3.271v7.421Zm22.987-7.7a4.231,4.231,0,0,0-.488-.031,3.54,3.54,0,0,0-2.2.708,5.134,5.134,0,0,0-1.545,2.124v-2.526h-2.918v12.67h3.248v-5.92a4.933,4.933,0,0,1,.842-3.106,2.936,2.936,0,0,1,2.453-1.068,3.949,3.949,0,0,1,.586.043,3.239,3.239,0,0,1,.537.128l.123-2.93c-.245-.041-.458-.072-.635-.092ZM413.242,176a4.78,4.78,0,0,1,.842,2.985,4.293,4.293,0,0,1-.873,2.788A2.723,2.723,0,0,1,411,182.85a2.622,2.622,0,0,1-2.2-1.093,4.763,4.763,0,0,1-.822-2.936,4.557,4.557,0,0,1,.822-2.845,2.6,2.6,0,0,1,2.168-1.073A2.737,2.737,0,0,1,413.242,176Zm-.758-2.954a5.014,5.014,0,0,0-2.514-.616,4.886,4.886,0,0,0-3.943,1.819,7.152,7.152,0,0,0-1.514,4.736,6.874,6.874,0,0,0,1.508,4.639,4.977,4.977,0,0,0,3.973,1.758,4.741,4.741,0,0,0,2.332-.574,5.838,5.838,0,0,0,1.893-1.782v1.38a4.005,4.005,0,0,1-1.105,3,4.2,4.2,0,0,1-3.07,1.079,7.614,7.614,0,0,1-1.939-.262,10.707,10.707,0,0,1-2.016-.763l-.2,2.624a13.268,13.268,0,0,0,2.191.592,12.692,12.692,0,0,0,2.252.2,7.258,7.258,0,0,0,5.3-1.734,7.1,7.1,0,0,0,1.752-5.261v-11.12h-3.027v2.172a5.4,5.4,0,0,0-1.883-1.886Z" fill="#3a4342"/>
  </g>
</svg>
